<svg xmlns="http://www.w3.org/2000/svg" width="500" height="500" viewBox="0 0 500 500" version="1.1">
	<path d="M 0 250.002 L 0 500.004 250.250 499.752 L 500.500 499.500 500.752 249.750 L 501.004 0 250.502 0 L 0 0 0 250.002 M 0.492 250.500 C 0.492 388, 0.608 444.101, 0.750 375.170 C 0.892 306.238, 0.892 193.738, 0.750 125.170 C 0.608 56.601, 0.492 113, 0.492 250.500 M 326.485 232.048 C 326.127 233.174, 326.377 234.749, 327.040 235.548 C 329.703 238.757, 334.774 236.016, 333.515 232.048 C 333.059 230.612, 332.009 230, 330 230 C 327.991 230, 326.941 230.612, 326.485 232.048 M 101.619 232.003 C 92.274 234.903, 88.224 250.239, 93.736 261.856 C 96.811 268.336, 106.132 271.052, 113.040 267.479 C 115.438 266.239, 120 259.724, 120 257.540 C 120 257.243, 118.497 257, 116.661 257 C 114.079 257, 113.065 257.561, 112.195 259.472 C 110.952 262.199, 107.294 263.542, 103.619 262.619 C 96.341 260.792, 96.197 240.776, 103.443 238.022 C 106.626 236.812, 108.915 237.563, 111.597 240.698 C 113.168 242.534, 114.487 243.068, 116.852 242.825 L 120.009 242.500 118.255 239.071 C 115.122 232.949, 108.136 229.981, 101.619 232.003 M 222 250.500 L 222 269 224.906 269 L 227.813 269 228.156 258.918 C 228.527 248.057, 229.558 246, 234.634 246 C 238.629 246, 240 249.505, 240 259.723 L 240 269 243.108 269 L 246.216 269 245.851 257.516 C 245.507 246.657, 245.342 245.888, 242.834 243.380 C 240.816 241.361, 239.189 240.727, 236.027 240.727 C 233.742 240.727, 231.361 241.239, 230.736 241.864 C 228.613 243.987, 228 243.009, 228 237.500 C 228 232.056, 227.970 232, 225 232 L 222 232 222 250.500 M 195.500 237 C 194.866 240.753, 194.614 241, 191.412 241 C 188.439 241, 188 241.322, 188 243.500 C 188 245.677, 188.440 246, 191.401 246 L 194.801 246 195.151 255.087 C 195.478 263.602, 195.677 264.326, 198.306 266.587 C 200.313 268.314, 202.313 269, 205.333 269 C 210.393 269, 213.423 267.093, 214.845 263.016 C 215.882 260.041, 215.849 260, 212.448 260 C 210.069 260, 209 260.459, 209 261.481 C 209 262.295, 207.805 263.262, 206.344 263.628 C 202.359 264.629, 201 262.005, 201 253.309 L 201 246 206 246 C 210.667 246, 211 245.833, 211 243.500 C 211 241.167, 210.667 241, 206 241 L 201 241 201 237 C 201 233.439, 200.735 233, 198.588 233 C 196.553 233, 196.070 233.626, 195.500 237 M 134.024 241.062 C 130.483 241.854, 127 245.102, 127 247.611 C 127 249.486, 131.735 249.407, 133.643 247.500 C 135.913 245.230, 140.618 245.616, 142.443 248.223 C 144.813 251.605, 144.427 252, 138.750 252.002 C 132.011 252.004, 126.850 254.544, 125.862 258.345 C 125.010 261.623, 126.311 265.754, 128.789 267.637 C 131.110 269.400, 138.172 269.337, 140.559 267.532 C 143.057 265.642, 144 265.634, 144 267.500 C 144 268.514, 145.014 269, 147.128 269 L 150.257 269 149.807 258.250 C 149.350 247.332, 148.329 243.748, 145.227 242.164 C 142.355 240.697, 137.700 240.239, 134.024 241.062 M 262.024 241.062 C 258.483 241.854, 255 245.102, 255 247.611 C 255 249.486, 259.735 249.407, 261.643 247.500 C 263.913 245.230, 268.618 245.616, 270.443 248.223 C 272.813 251.605, 272.427 252, 266.750 252.002 C 260.011 252.004, 254.850 254.544, 253.862 258.345 C 253.010 261.623, 254.311 265.754, 256.789 267.637 C 259.110 269.400, 266.172 269.337, 268.559 267.532 C 271.057 265.642, 272 265.634, 272 267.500 C 272 268.514, 273.014 269, 275.128 269 L 278.257 269 277.807 258.250 C 277.350 247.332, 276.329 243.748, 273.227 242.164 C 270.355 240.697, 265.700 240.239, 262.024 241.062 M 357.035 241.274 C 351.961 243.069, 349 248.033, 349 254.744 C 349 263.826, 353.718 269, 362 269 C 366.953 269, 371.098 266.797, 373.364 262.960 C 375.403 259.509, 375.504 250.876, 373.551 247.099 C 370.710 241.604, 363.395 239.024, 357.035 241.274 M 391.750 241.450 C 389.688 242.173, 388 242.367, 388 241.882 C 388 241.397, 386.650 241, 385 241 L 382 241 382 255 L 382 269 385 269 L 388 269 388 259.500 C 388 251.333, 388.281 249.719, 390 248 C 392.496 245.504, 396.173 245.429, 398.345 247.829 C 399.645 249.265, 400 251.733, 400 259.329 L 400 269 403 269 L 406 269 406 258.016 C 406 247.407, 405.906 246.932, 403.250 244.112 C 399.845 240.497, 396.607 239.748, 391.750 241.450 M 159 243.500 C 159 245.500, 159.500 246, 161.500 246 C 163.971 246, 164 246.100, 164 254.500 L 164 263 161 263 C 158.333 263, 158 263.333, 158 266 L 158 269 169 269 L 180 269 180 266 C 180 263.067, 179.889 263, 175 263 L 170 263 170 257.934 C 170 252.938, 171.249 249.201, 173.400 247.765 C 174.005 247.361, 176.188 247.024, 178.250 247.015 C 181.747 247.001, 182 246.797, 182 244 C 182 241.196, 181.753 241, 178.223 241 C 176.145 241, 173.387 241.741, 172.094 242.647 C 169.912 244.175, 169.678 244.175, 168.822 242.647 C 168.182 241.503, 166.542 241, 163.450 241 C 159.370 241, 159 241.208, 159 243.500 M 287 243.500 C 287 245.500, 287.500 246, 289.500 246 C 291.971 246, 292 246.100, 292 254.500 L 292 263 289 263 C 286.333 263, 286 263.333, 286 266 L 286 269 297 269 L 308 269 308 266 C 308 263.067, 307.889 263, 303 263 L 298 263 298 257.934 C 298 252.938, 299.249 249.201, 301.400 247.765 C 302.005 247.361, 304.188 247.024, 306.250 247.015 C 309.747 247.001, 310 246.797, 310 244 C 310 241.196, 309.753 241, 306.223 241 C 304.145 241, 301.387 241.741, 300.094 242.647 C 297.912 244.175, 297.678 244.175, 296.822 242.647 C 296.182 241.503, 294.542 241, 291.450 241 C 287.370 241, 287 241.208, 287 243.500 M 320 243.440 C 320 245.537, 320.526 245.923, 323.750 246.190 L 327.500 246.500 327.790 254.750 L 328.081 263 323.040 263 C 318.107 263, 318 263.063, 318 266 L 318 269 330.566 269 L 343.133 269 342.816 266.250 C 342.533 263.789, 342.053 263.468, 338.250 263.193 L 334 262.885 334 251.943 L 334 241 327 241 C 320.246 241, 320 241.086, 320 243.440 M 357 248 C 355.541 249.459, 355 251.333, 355 254.927 C 355 259.060, 355.425 260.189, 357.635 261.927 C 359.084 263.067, 361.048 264, 362 264 C 362.952 264, 364.916 263.067, 366.365 261.927 C 368.575 260.189, 369 259.060, 369 254.927 C 369 249.070, 366.593 246, 362 246 C 360.333 246, 358.111 246.889, 357 248 M 132.614 258.529 C 129.125 262.018, 135.109 265.568, 139.931 262.870 C 141.344 262.080, 142.644 260.436, 142.820 259.217 C 143.109 257.209, 142.715 257, 138.641 257 C 135.938 257, 133.533 257.610, 132.614 258.529 M 260.614 258.529 C 257.125 262.018, 263.109 265.568, 267.931 262.870 C 269.344 262.080, 270.644 260.436, 270.820 259.217 C 271.109 257.209, 270.715 257, 266.641 257 C 263.938 257, 261.533 257.610, 260.614 258.529" stroke="none" fill="#000000" fill-rule="evenodd"/>
</svg>